<svg width="40" height="40" viewBox="0 0 40 40" fill="none" xmlns="http://www.w3.org/2000/svg">
<path d="M32.1304 10.07C27.9304 10.07 23.7704 8.57003 20.4004 5.86003L20.0004 5.53003L19.6004 5.86003C16.2304 8.58003 12.0704 10.1 7.87043 10.1H7.19043V16.29C7.19043 24.84 12.2504 32.04 19.7804 34.75L20.0004 34.83L20.2204 34.75C27.7504 32.05 32.8104 24.85 32.8104 16.29V10.07H32.1304Z" fill="#B9CBE9"/>
<path d="M20.0001 37.8399L19.7301 37.7499C10.5401 34.7499 4.37012 26.3599 4.37012 16.8699V7.18991H5.20012C10.3201 7.18991 15.4001 5.52991 19.5101 2.51991L20.0001 2.15991L20.4901 2.51991C24.6001 5.52991 29.6801 7.18991 34.8001 7.18991H35.6301V16.8799C35.6301 26.3699 29.4601 34.7599 20.2701 37.7599L20.0001 37.8499V37.8399Z" stroke="#0C316D" stroke-linejoin="round"/>
<path d="M18.7199 25.7699C18.4299 26.0599 18.0299 26.2299 17.6099 26.2299C17.1899 26.2299 16.7999 26.0699 16.4999 25.7699L12.1299 21.3999L14.3399 19.1899L17.5999 22.4499L27.4399 12.8799L29.6499 15.0899L18.7099 25.7599L18.7199 25.7699Z" fill="#0C316D"/>
</svg>
